<?xml version="1.0" encoding="utf-8"?>
<!-- Generator: Adobe Illustrator 22.0.0, SVG Export Plug-In . SVG Version: 6.00 Build 0)  -->
<svg version="1.1" id="Layer_1" xmlns:svg="http://www.w3.org/2000/svg"
	 xmlns="http://www.w3.org/2000/svg" xmlns:xlink="http://www.w3.org/1999/xlink" x="0px" y="0px" viewBox="0 0 226.8 226.8"
	 style="enable-background:new 0 0 226.8 226.8;" xml:space="preserve">
<style type="text/css">
	.st0{fill:none;stroke:#000000;stroke-width:0.5;}
	.st1{fill:#231F20;}
</style>
<rect id="boardoutline" x="0.3" y="0.3" class="st0" width="226.2" height="226.2"/>
<circle id="connector16pad" class="st1" cx="120.9" cy="84.9" r="1.4"/>
<rect x="119.5" y="83.5" class="st1" width="2.9" height="2.9"/>
<circle id="connector17pad" class="st1" cx="120.9" cy="92.1" r="1.4"/>
<circle id="connector18pad" class="st1" cx="120.9" cy="99.3" r="1.4"/>
<circle id="connector19pad" class="st1" cx="120.9" cy="106.5" r="1.4"/>
<circle id="connector20pad" class="st1" cx="120.9" cy="113.7" r="1.4"/>
<circle id="connector21pad" class="st1" cx="120.9" cy="120.9" r="1.4"/>
<circle id="connector22pad" class="st1" cx="120.9" cy="128.1" r="1.4"/>
<circle id="connector23pad" class="st1" cx="120.9" cy="135.3" r="1.4"/>
<circle id="connector24pad" class="st1" cx="120.9" cy="142.5" r="1.4"/>
<circle id="connector25pad" class="st1" cx="120.9" cy="149.7" r="1.4"/>
<circle id="connector26pad" class="st1" cx="120.9" cy="156.9" r="1.4"/>
<circle id="connector27pad" class="st1" cx="120.9" cy="164.1" r="1.4"/>
<circle id="connector28pad" class="st1" cx="120.9" cy="171.3" r="1.4"/>
<circle id="connector29pad" class="st1" cx="120.9" cy="178.5" r="1.4"/>
<circle id="connector30pad" class="st1" cx="120.9" cy="185.7" r="1.4"/>
<circle id="connector31pad" class="st1" cx="77.7" cy="84.9" r="1.4"/>
<circle id="connector32pad" class="st1" cx="77.7" cy="92.1" r="1.4"/>
<circle id="connector33pad" class="st1" cx="77.7" cy="99.3" r="1.4"/>
<circle id="connector34pad" class="st1" cx="77.7" cy="106.5" r="1.4"/>
<circle id="connector35pad" class="st1" cx="77.7" cy="113.7" r="1.4"/>
<circle id="connector36pad" class="st1" cx="77.7" cy="120.9" r="1.4"/>
<circle id="connector37pad" class="st1" cx="77.7" cy="128.1" r="1.4"/>
<circle id="connector38pad" class="st1" cx="77.7" cy="135.3" r="1.4"/>
<circle id="connector39pad" class="st1" cx="77.7" cy="142.5" r="1.4"/>
<circle id="connector40pad" class="st1" cx="77.7" cy="149.7" r="1.4"/>
<circle id="connector41pad" class="st1" cx="77.7" cy="156.9" r="1.4"/>
<circle id="connector42pad" class="st1" cx="77.7" cy="164.1" r="1.4"/>
<circle id="connector43pad" class="st1" cx="77.7" cy="171.3" r="1.4"/>
<circle id="connector44pad" class="st1" cx="77.7" cy="178.5" r="1.4"/>
<circle id="connector45pad" class="st1" cx="77.7" cy="185.7" r="1.4"/>
<circle id="connector6pad" class="st1" cx="192.9" cy="192.9" r="1.4"/>
<circle id="connector7pad" class="st1" cx="192.9" cy="185.7" r="1.4"/>
<circle id="connector8pad" class="st1" cx="192.9" cy="178.5" r="1.4"/>
<circle id="connector9pad" class="st1" cx="192.9" cy="171.3" r="1.4"/>
<circle id="connector10pad" class="st1" cx="192.9" cy="164.1" r="1.4"/>
<circle id="connector11pad" class="st1" cx="192.9" cy="156.9" r="1.4"/>
<circle id="connector12pad" class="st1" cx="192.9" cy="149.7" r="1.4"/>
<circle id="connector13pad" class="st1" cx="192.9" cy="142.5" r="1.4"/>
<circle id="connector14pad" class="st1" cx="149.7" cy="142.5" r="1.4"/>
<circle id="connector15pad" class="st1" cx="149.7" cy="149.7" r="1.4"/>
<circle id="connector16pad_1_" class="st1" cx="149.7" cy="156.9" r="1.4"/>
<circle id="connector17pad_1_" class="st1" cx="149.7" cy="164.1" r="1.4"/>
<circle id="connector18pad_1_" class="st1" cx="149.7" cy="171.3" r="1.4"/>
<circle id="connector19pad_1_" class="st1" cx="149.7" cy="178.5" r="1.4"/>
<circle id="connector20pad_1_" class="st1" cx="149.7" cy="185.7" r="1.4"/>
<circle id="connector21pad_1_" class="st1" cx="149.7" cy="192.9" r="1.4"/>
<circle id="connector6pad_1_" class="st1" cx="192.9" cy="128.1" r="1.4"/>
<circle id="connector7pad_1_" class="st1" cx="192.9" cy="120.9" r="1.4"/>
<circle id="connector8pad_1_" class="st1" cx="192.9" cy="113.7" r="1.4"/>
<circle id="connector9pad_1_" class="st1" cx="192.9" cy="106.5" r="1.4"/>
<circle id="connector10pad_1_" class="st1" cx="192.9" cy="99.3" r="1.4"/>
<circle id="connector11pad_1_" class="st1" cx="192.9" cy="92.1" r="1.4"/>
<circle id="connector12pad_1_" class="st1" cx="192.9" cy="84.9" r="1.4"/>
<circle id="connector13pad_1_" class="st1" cx="192.9" cy="77.7" r="1.4"/>
<circle id="connector14pad_1_" class="st1" cx="149.7" cy="77.7" r="1.4"/>
<circle id="connector15pad_1_" class="st1" cx="149.7" cy="84.9" r="1.4"/>
<circle id="connector16pad_2_" class="st1" cx="149.7" cy="92.1" r="1.4"/>
<circle id="connector17pad_2_" class="st1" cx="149.7" cy="99.3" r="1.4"/>
<circle id="connector18pad_2_" class="st1" cx="149.7" cy="106.5" r="1.4"/>
<circle id="connector19pad_2_" class="st1" cx="149.7" cy="113.7" r="1.4"/>
<circle id="connector20pad_2_" class="st1" cx="149.7" cy="120.9" r="1.4"/>
<circle id="connector21pad_2_" class="st1" cx="149.7" cy="128.1" r="1.4"/>
<circle id="connector0pin" class="st1" cx="56.1" cy="142.5" r="1.4"/>
<circle id="connector1pin" class="st1" cx="56.1" cy="135.3" r="1.4"/>
<circle id="connector2pin" class="st1" cx="56.1" cy="128.1" r="1.4"/>
<circle id="connector3pin" class="st1" cx="56.1" cy="120.9" r="1.4"/>
<circle id="connector0pin_1_" class="st1" cx="48.9" cy="164.1" r="1.4"/>
<circle id="connector1pin_1_" class="st1" cx="48.9" cy="171.3" r="1.4"/>
<circle id="connector2pin_1_" class="st1" cx="48.9" cy="178.5" r="1.4"/>
<circle id="connector3pin_1_" class="st1" cx="48.9" cy="185.7" r="1.4"/>
<circle id="connector0pin_2_" class="st1" cx="84.9" cy="63.3" r="1.4"/>
<circle id="connector1pin_2_" class="st1" cx="92.1" cy="63.3" r="1.4"/>
<circle id="connector2pin_2_" class="st1" cx="99.3" cy="63.3" r="1.4"/>
<circle id="connector3pin_2_" class="st1" cx="106.5" cy="63.3" r="1.4"/>
<circle id="connector0pin_3_" class="st1" cx="56.1" cy="164.1" r="1.4"/>
<circle id="connector1pin_3_" class="st1" cx="56.1" cy="171.3" r="1.4"/>
<circle id="connector2pin_3_" class="st1" cx="56.1" cy="178.5" r="1.4"/>
<circle id="connector3pin_3_" class="st1" cx="56.1" cy="185.7" r="1.4"/>
<circle id="connector0pin_4_" class="st1" cx="70.5" cy="128.1" r="1.4"/>
<circle id="connector1pin_4_" class="st1" cx="70.5" cy="135.3" r="1.4"/>
<circle id="connector0pin_5_" class="st1" cx="207.3" cy="106.5" r="1.4"/>
<circle id="connector1pin_5_" class="st1" cx="207.3" cy="99.3" r="1.4"/>
<circle id="connector0pin_6_" class="st1" cx="207.3" cy="113.7" r="1.4"/>
<circle id="connector1pin_6_" class="st1" cx="207.3" cy="120.9" r="1.4"/>
<circle id="connector0pin_7_" class="st1" cx="207.3" cy="171.3" r="1.4"/>
<circle id="connector1pin_7_" class="st1" cx="207.3" cy="164.1" r="1.4"/>
<circle id="connector0pin_8_" class="st1" cx="207.3" cy="178.5" r="1.4"/>
<circle id="connector1pin_8_" class="st1" cx="207.3" cy="185.7" r="1.4"/>
<circle id="connector0pin_9_" class="st1" cx="27.3" cy="120.9" r="3.5"/>
<circle id="connector1pin_9_" class="st1" cx="10" cy="120.9" r="3.5"/>
<circle id="connector2pin_4_" class="st1" cx="18.6" cy="107.2" r="3.5"/>
<circle id="connector0pin_10_" class="st1" cx="27.3" cy="185.7" r="3.5"/>
<circle id="connector1pin_10_" class="st1" cx="10" cy="185.7" r="3.5"/>
<circle id="connector2pin_5_" class="st1" cx="18.6" cy="172" r="3.5"/>
</svg>
